<svg width="58" height="49" viewBox="0 0 58 49" fill="none" xmlns="http://www.w3.org/2000/svg">
<g id="icons8-github 1">
<path id="Vector" d="M26.3417 4.2875C15.225 5.30833 6.28335 12.8625 5.07502 22.05C3.62502 32.2583 11.1167 41.0375 21.75 43.8958V39.2C21.75 39.2 20.7834 39.4042 19.575 39.4042C16.1917 39.4042 14.7417 36.9542 14.5 35.525C14.2584 34.7083 13.775 34.0958 13.05 33.4833C12.325 33.2792 12.0834 33.2792 12.0834 33.075C12.0834 32.6667 12.8084 32.6667 13.05 32.6667C14.5 32.6667 15.7084 34.0958 16.1917 34.7083C17.4 36.3417 18.85 36.75 19.575 36.75C20.5417 36.75 21.2667 36.5458 21.75 36.3417C21.9917 34.9125 22.7167 33.4833 24.1667 32.6667C18.6084 31.6458 14.5 28.9917 14.5 24.5C14.5 22.2542 15.7084 20.0083 17.4 18.375C17.1584 17.9667 16.9167 16.9458 16.9167 15.5167C16.9167 14.7 16.9167 13.475 17.6417 12.25C17.6417 12.25 21.025 12.25 24.4084 14.9042C25.6167 14.4958 27.3084 14.2917 29 14.2917C30.6917 14.2917 32.3834 14.4958 33.8334 14.9042C36.975 12.25 40.6 12.25 40.6 12.25C41.0833 13.475 41.0834 14.7 41.0834 15.5167C41.0834 17.15 40.8417 17.9667 40.6 18.375C42.2917 20.0083 43.5 22.05 43.5 24.5C43.5 28.9917 39.3917 31.6458 33.8334 32.6667C35.2834 33.6875 36.25 35.525 36.25 37.3625V44.1C46.1584 41.4458 53.1667 33.6875 53.1667 24.7042C53.1667 12.4542 40.8417 2.85833 26.3417 4.2875Z" fill="black"/>
</g>
</svg>
