<svg width="96" height="93" viewBox="0 0 96 93" fill="none" xmlns="http://www.w3.org/2000/svg">
<g id="icons8-clock 1">
<path id="Vector" d="M1.48022 46.5C1.48022 21.6152 22.2976 1.43497 47.9679 1.43497C73.6382 1.43497 94.4555 21.6152 94.4555 46.5C94.4555 71.3848 73.6382 91.5651 47.9679 91.5651C22.2976 91.5651 1.48022 71.3848 1.48022 46.5Z" fill="#48A1AF"/>
<path id="Vector_2" d="M15.7207 46.5C15.7207 29.2441 30.1486 15.2397 47.9679 15.2397C65.7685 15.2397 80.2151 29.226 80.2151 46.5C80.2151 63.7559 65.7872 77.7604 47.9679 77.7604C30.1673 77.7604 15.7207 63.7559 15.7207 46.5Z" fill="white"/>
<path id="Vector_3" d="M19.2808 46.5C19.2808 31.1332 32.1347 18.6908 47.9679 18.6908C63.8198 18.6908 76.655 31.1332 76.655 46.5C76.655 61.8668 63.801 74.3092 47.9679 74.3092C32.116 74.3092 19.2808 61.8668 19.2808 46.5Z" fill="#48A1AF"/>
<path id="Vector_4" d="M47.9679 50.7867C45.5321 50.7867 43.5459 48.8613 43.5459 46.5C43.5459 44.1387 45.5321 42.2133 47.9679 42.2133C50.4038 42.2133 52.39 44.1387 52.39 46.5C52.39 48.8613 50.4038 50.7867 47.9679 50.7867Z" fill="white"/>
<path id="Vector_5" d="M47.968 47.8986H31.4415C30.6545 47.8986 29.9987 47.2811 29.9987 46.5C29.9987 45.719 30.6358 45.1014 31.4415 45.1014H47.968C48.7549 45.1014 49.4107 45.719 49.4107 46.5C49.4107 47.2811 48.7549 47.8986 47.968 47.8986Z" fill="white"/>
<path id="Vector_6" d="M47.9679 47.8986C47.5932 47.8986 47.2371 47.7533 46.9561 47.4809C46.394 46.9359 46.394 46.0459 46.9561 45.501L58.6483 34.1666C59.2104 33.6217 60.1285 33.6217 60.6906 34.1666C61.2528 34.7115 61.2528 35.6016 60.6906 36.1465L48.9985 47.4809C48.6987 47.7533 48.3426 47.8986 47.9679 47.8986Z" fill="white"/>
<g id="Group">
<path id="Vector_7" d="M47.9679 21.4336C47.471 21.4336 46.9944 21.625 46.643 21.9656C46.2916 22.3062 46.0942 22.7683 46.0942 23.25C46.0942 23.7317 46.2916 24.1938 46.643 24.5344C46.9944 24.875 47.471 25.0664 47.9679 25.0664C48.4649 25.0664 48.9415 24.875 49.2929 24.5344C49.6443 24.1938 49.8417 23.7317 49.8417 23.25C49.8417 22.7683 49.6443 22.3062 49.2929 21.9656C48.9415 21.625 48.4649 21.4336 47.9679 21.4336ZM47.9679 67.9336C47.471 67.9336 46.9944 68.125 46.643 68.4656C46.2916 68.8062 46.0942 69.2683 46.0942 69.75C46.0942 70.2317 46.2916 70.6938 46.643 71.0344C46.9944 71.375 47.471 71.5664 47.9679 71.5664C48.4649 71.5664 48.9415 71.375 49.2929 71.0344C49.6443 70.6938 49.8417 70.2317 49.8417 69.75C49.8417 69.2683 49.6443 68.8062 49.2929 68.4656C48.9415 68.125 48.4649 67.9336 47.9679 67.9336V67.9336Z" fill="white"/>
<g id="Group_2">
<path id="Vector_8" d="M71.9519 44.6836C71.4549 44.6836 70.9783 44.875 70.6269 45.2156C70.2756 45.5562 70.0781 46.0183 70.0781 46.5C70.0781 46.9817 70.2756 47.4438 70.6269 47.7844C70.9783 48.125 71.4549 48.3164 71.9519 48.3164C72.4488 48.3164 72.9254 48.125 73.2768 47.7844C73.6282 47.4438 73.8256 46.9817 73.8256 46.5C73.8256 46.0183 73.6282 45.5562 73.2768 45.2156C72.9254 44.875 72.4488 44.6836 71.9519 44.6836V44.6836ZM23.984 44.6836C23.487 44.6836 23.0104 44.875 22.659 45.2156C22.3076 45.5562 22.1102 46.0183 22.1102 46.5C22.1102 46.9817 22.3076 47.4438 22.659 47.7844C23.0104 48.125 23.487 48.3164 23.984 48.3164C24.4809 48.3164 24.9575 48.125 25.3089 47.7844C25.6603 47.4438 25.8577 46.9817 25.8577 46.5C25.8577 46.0183 25.6603 45.5562 25.3089 45.2156C24.9575 44.875 24.4809 44.6836 23.984 44.6836Z" fill="white"/>
</g>
</g>
<g id="Group_3">
<path id="Vector_9" d="M64.9253 28.2451C64.4284 28.2451 63.9518 28.4365 63.6004 28.7771C63.249 29.1178 63.0516 29.5798 63.0516 30.0615C63.0516 30.5433 63.249 31.0053 63.6004 31.3459C63.9518 31.6866 64.4284 31.8779 64.9253 31.8779C65.4223 31.8779 65.8989 31.6866 66.2503 31.3459C66.6017 31.0053 66.7991 30.5433 66.7991 30.0615C66.7991 29.5798 66.6017 29.1178 66.2503 28.7771C65.8989 28.4365 65.4223 28.2451 64.9253 28.2451ZM31.0105 61.1221C30.5136 61.1221 30.037 61.3134 29.6856 61.6541C29.3342 61.9947 29.1368 62.4567 29.1368 62.9385C29.1368 63.4202 29.3342 63.8822 29.6856 64.2229C30.037 64.5635 30.5136 64.7549 31.0105 64.7549C31.5075 64.7549 31.9841 64.5635 32.3355 64.2229C32.6869 63.8822 32.8843 63.4202 32.8843 62.9385C32.8843 62.4567 32.6869 61.9947 32.3355 61.6541C31.9841 61.3134 31.5075 61.1221 31.0105 61.1221V61.1221Z" fill="white"/>
<g id="Group_4">
<path id="Vector_10" d="M64.9253 61.1221C64.4284 61.1221 63.9518 61.3134 63.6004 61.6541C63.249 61.9947 63.0516 62.4567 63.0516 62.9385C63.0516 63.4202 63.249 63.8822 63.6004 64.2229C63.9518 64.5635 64.4284 64.7549 64.9253 64.7549C65.4223 64.7549 65.8989 64.5635 66.2503 64.2229C66.6017 63.8822 66.7991 63.4202 66.7991 62.9385C66.7991 62.4567 66.6017 61.9947 66.2503 61.6541C65.8989 61.3134 65.4223 61.1221 64.9253 61.1221V61.1221ZM31.0105 28.2451C30.5136 28.2451 30.037 28.4365 29.6856 28.7771C29.3342 29.1178 29.1368 29.5798 29.1368 30.0615C29.1368 30.5433 29.3342 31.0053 29.6856 31.3459C30.037 31.6866 30.5136 31.8779 31.0105 31.8779C31.5075 31.8779 31.9841 31.6866 32.3355 31.3459C32.6869 31.0053 32.8843 30.5433 32.8843 30.0615C32.8843 29.5798 32.6869 29.1178 32.3355 28.7771C31.9841 28.4365 31.5075 28.2451 31.0105 28.2451Z" fill="white"/>
</g>
</g>
</g>
</svg>
